# xmcd CD database file
#
# Track frame offsets:
#	150
#	16575
#	34613
#	52588
#	72800
#	89198
#	109867
#	127779
#	147127
#	166528
#	181603
#	198624
#	214857
#	231801
#
# Disc length: 3310 seconds
#
# Revision: 3
# Processed by: cddbd v1.5.2PL0 Copyright (c) Steve Scherf et al.
# Submitted via: CDex 1.50Beta7
#
DISCID=ab0cec0e
DTITLE=Roland Kaiser - Flieg mit mir zu den Sternen
DYEAR=2000
DGENRE=Schlager
TTITLE0=Ich glaub es geht schon wieder los
TTITLE1=Mit dir kommt Leben in mein Leben
TTITLE2=Ein schöner Morgen
TTITLE3=Lieb mich ein letztes mal
TTITLE4=Manchmal möchte ich schon mit dir
TTITLE5=Einmal im Leben
TTITLE6=Wie soll ich leben ohne dich
TTITLE7=Kein Wort von Liebe
TTITLE8=Es kann der frömmste nicht in Frieden leben
TTITLE9=Was hat er was Ich nicht hab
TTITLE10=Dann bist du da
TTITLE11=Wenn sie auch kein Engel ist
TTITLE12=Ich will dich
TTITLE13=Flieg mit mir zu den Sternen
EXTD=YEAR: 2000
EXTT0=
EXTT1=
EXTT2=
EXTT3=
EXTT4=
EXTT5=
EXTT6=
EXTT7=
EXTT8=
EXTT9=
EXTT10=
EXTT11=
EXTT12=
EXTT13=
PLAYORDER=
